%TF.GenerationSoftware,KiCad,Pcbnew,10.0.1*%
%TF.CreationDate,2026-07-02T05:41:54-07:00*%
%TF.ProjectId,BusinessCard,42757369-6e65-4737-9343-6172642e6b69,rev?*%
%TF.SameCoordinates,Original*%
%TF.FileFunction,Copper,L2,Bot*%
%TF.FilePolarity,Positive*%
%FSLAX46Y46*%
G04 Gerber Fmt 4.6, Leading zero omitted, Abs format (unit mm)*
G04 Created by KiCad (PCBNEW 10.0.1) date 2026-07-02 05:41:54*
%MOMM*%
%LPD*%
G01*
G04 APERTURE LIST*
G04 Aperture macros list*
%AMRoundRect*
0 Rectangle with rounded corners*
0 $1 Rounding radius*
0 $2 $3 $4 $5 $6 $7 $8 $9 X,Y pos of 4 corners*
0 Add a 4 corners polygon primitive as box body*
4,1,4,$2,$3,$4,$5,$6,$7,$8,$9,$2,$3,0*
0 Add four circle primitives for the rounded corners*
1,1,$1+$1,$2,$3*
1,1,$1+$1,$4,$5*
1,1,$1+$1,$6,$7*
1,1,$1+$1,$8,$9*
0 Add four rect primitives between the rounded corners*
20,1,$1+$1,$2,$3,$4,$5,0*
20,1,$1+$1,$4,$5,$6,$7,0*
20,1,$1+$1,$6,$7,$8,$9,0*
20,1,$1+$1,$8,$9,$2,$3,0*%
G04 Aperture macros list end*
%TA.AperFunction,EtchedComponent*%
%ADD10C,0.100000*%
%TD*%
%TA.AperFunction,EtchedComponent*%
%ADD11C,1.200000*%
%TD*%
%TA.AperFunction,SMDPad,CuDef*%
%ADD12RoundRect,0.581625X-0.581625X-1.878375X0.581625X-1.878375X0.581625X1.878375X-0.581625X1.878375X0*%
%TD*%
%TA.AperFunction,ViaPad*%
%ADD13C,0.600000*%
%TD*%
G04 APERTURE END LIST*
%TO.C,BT1*%
D10*
X111966276Y-100539300D02*
X111966276Y-103039300D01*
D11*
X111373276Y-100623298D02*
G75*
G02*
X110173276Y-100623298I-600000J0D01*
G01*
X110173276Y-100623298D02*
G75*
G02*
X111373276Y-100623298I600000J0D01*
G01*
X111373278Y-103123300D02*
G75*
G02*
X110173278Y-103123300I-600000J0D01*
G01*
X110173278Y-103123300D02*
G75*
G02*
X111373278Y-103123300I600000J0D01*
G01*
D10*
X110852128Y-99474071D02*
X110852128Y-104274072D01*
X99521728Y-104223272D01*
X99521728Y-99423271D01*
X110852128Y-99474071D01*
%TA.AperFunction,EtchedComponent*%
G36*
X110852128Y-99474071D02*
G01*
X110852128Y-104274072D01*
X99521728Y-104223272D01*
X99521728Y-99423271D01*
X110852128Y-99474071D01*
G37*
%TD.AperFunction*%
X110852128Y-99474071D02*
X110852128Y-104274072D01*
X99521728Y-104223272D01*
X99521728Y-99423271D01*
X110852128Y-99474071D01*
%TA.AperFunction,EtchedComponent*%
G36*
X110852128Y-99474071D02*
G01*
X110852128Y-104274072D01*
X99521728Y-104223272D01*
X99521728Y-99423271D01*
X110852128Y-99474071D01*
G37*
%TD.AperFunction*%
X111923276Y-101023300D02*
X111923276Y-102673300D01*
X109823276Y-103423300D01*
X109623278Y-103123300D01*
X109623276Y-100623298D01*
X111923276Y-101023300D01*
%TA.AperFunction,EtchedComponent*%
G36*
X111923276Y-101023300D02*
G01*
X111923276Y-102673300D01*
X109823276Y-103423300D01*
X109623278Y-103123300D01*
X109623276Y-100623298D01*
X111923276Y-101023300D01*
G37*
%TD.AperFunction*%
%TD*%
D12*
%TO.P,BT1,2,-_2*%
%TO.N,Net-(BT1--)*%
X98751526Y-101863300D03*
%TD*%
D13*
%TO.N,Net-(BT1--)*%
X113152000Y-87590000D03*
%TD*%
%TA.AperFunction,Conductor*%
%TO.N,Net-(BT1--)*%
G36*
X175135702Y-62730618D02*
G01*
X175148819Y-62731190D01*
X175526742Y-62747690D01*
X175537477Y-62748630D01*
X175922859Y-62799366D01*
X175933493Y-62801241D01*
X176312990Y-62885374D01*
X176323416Y-62888168D01*
X176694135Y-63005055D01*
X176704270Y-63008744D01*
X177063387Y-63157496D01*
X177073179Y-63162062D01*
X177417965Y-63341546D01*
X177427305Y-63346939D01*
X177697433Y-63519030D01*
X177755122Y-63555782D01*
X177763983Y-63561986D01*
X178072352Y-63798606D01*
X178080639Y-63805560D01*
X178367203Y-64068147D01*
X178374852Y-64075796D01*
X178637439Y-64362360D01*
X178644393Y-64370647D01*
X178881013Y-64679016D01*
X178887217Y-64687877D01*
X179096052Y-65015680D01*
X179101461Y-65025048D01*
X179280934Y-65369814D01*
X179285506Y-65379618D01*
X179434249Y-65738714D01*
X179437949Y-65748879D01*
X179554828Y-66119572D01*
X179557628Y-66130021D01*
X179641756Y-66509498D01*
X179643634Y-66520151D01*
X179694367Y-66905499D01*
X179695310Y-66916276D01*
X179712382Y-67307297D01*
X179712500Y-67312706D01*
X179712500Y-111122293D01*
X179712382Y-111127702D01*
X179695310Y-111518723D01*
X179694367Y-111529500D01*
X179643634Y-111914848D01*
X179641756Y-111925501D01*
X179557628Y-112304978D01*
X179554828Y-112315427D01*
X179437949Y-112686120D01*
X179434249Y-112696285D01*
X179285506Y-113055381D01*
X179280934Y-113065185D01*
X179101461Y-113409951D01*
X179096052Y-113419319D01*
X178887217Y-113747122D01*
X178881013Y-113755983D01*
X178644393Y-114064352D01*
X178637439Y-114072639D01*
X178374852Y-114359203D01*
X178367203Y-114366852D01*
X178080639Y-114629439D01*
X178072352Y-114636393D01*
X177763983Y-114873013D01*
X177755122Y-114879217D01*
X177427319Y-115088052D01*
X177417951Y-115093461D01*
X177073185Y-115272934D01*
X177063381Y-115277506D01*
X176704285Y-115426249D01*
X176694120Y-115429949D01*
X176323427Y-115546828D01*
X176312978Y-115549628D01*
X175933501Y-115633756D01*
X175922848Y-115635634D01*
X175537500Y-115686367D01*
X175526723Y-115687310D01*
X175135703Y-115704382D01*
X175130294Y-115704500D01*
X99570706Y-115704500D01*
X99565297Y-115704382D01*
X99174276Y-115687310D01*
X99163501Y-115686367D01*
X99074792Y-115674688D01*
X98778151Y-115635634D01*
X98767498Y-115633756D01*
X98388021Y-115549628D01*
X98377572Y-115546828D01*
X98006879Y-115429949D01*
X97996714Y-115426249D01*
X97637618Y-115277506D01*
X97627814Y-115272934D01*
X97514100Y-115213738D01*
X97283042Y-115093457D01*
X97273687Y-115088056D01*
X97003567Y-114915970D01*
X96945877Y-114879217D01*
X96937016Y-114873013D01*
X96628647Y-114636393D01*
X96620360Y-114629439D01*
X96333796Y-114366852D01*
X96326147Y-114359203D01*
X96063560Y-114072639D01*
X96056606Y-114064352D01*
X95819986Y-113755983D01*
X95813782Y-113747122D01*
X95718622Y-113597752D01*
X95604939Y-113419305D01*
X95599546Y-113409965D01*
X95420062Y-113065179D01*
X95415493Y-113055381D01*
X95356580Y-112913152D01*
X95266744Y-112696270D01*
X95263055Y-112686135D01*
X95146168Y-112315416D01*
X95143374Y-112304990D01*
X95059241Y-111925493D01*
X95057365Y-111914848D01*
X95006630Y-111529477D01*
X95005690Y-111518742D01*
X94988618Y-111127701D01*
X94988500Y-111122293D01*
X94988500Y-103172996D01*
X97088276Y-103172996D01*
X98397973Y-101863300D01*
X98397973Y-101863299D01*
X97088276Y-100553602D01*
X97088276Y-103172996D01*
X94988500Y-103172996D01*
X94988500Y-97312520D01*
X96532414Y-97312520D01*
X96565530Y-97612812D01*
X96565532Y-97612823D01*
X96632115Y-97907509D01*
X96731327Y-98192867D01*
X96861912Y-98465298D01*
X96861914Y-98465302D01*
X96861916Y-98465305D01*
X97022233Y-98721377D01*
X97022235Y-98721380D01*
X97143523Y-98873924D01*
X97210257Y-98957856D01*
X97351041Y-99098999D01*
X97384447Y-99160363D01*
X97379374Y-99230048D01*
X97350930Y-99274246D01*
X97332047Y-99293128D01*
X97332043Y-99293134D01*
X97216263Y-99464200D01*
X97216260Y-99464204D01*
X97134952Y-99654077D01*
X97134949Y-99654084D01*
X97092230Y-99850452D01*
X98715207Y-101473428D01*
X98748692Y-101534751D01*
X98751526Y-101561109D01*
X98751526Y-102165490D01*
X98731841Y-102232529D01*
X98715207Y-102253171D01*
X97092230Y-103876146D01*
X97134949Y-104072515D01*
X97134952Y-104072522D01*
X97216260Y-104262395D01*
X97216263Y-104262399D01*
X97332045Y-104433469D01*
X97356459Y-104457883D01*
X97389944Y-104519206D01*
X97384960Y-104588898D01*
X97356446Y-104633258D01*
X97242587Y-104747083D01*
X97242586Y-104747084D01*
X97054521Y-104982828D01*
X96894026Y-105238144D01*
X96763122Y-105509820D01*
X96721487Y-105628717D01*
X96678462Y-105751582D01*
X96663451Y-105794447D01*
X96596270Y-106088430D01*
X96596268Y-106088446D01*
X96562421Y-106388090D01*
X96562420Y-106388099D01*
X96562397Y-106465213D01*
X96562395Y-106473072D01*
X96562376Y-106473146D01*
X96562376Y-106538543D01*
X96562376Y-106538812D01*
X96562376Y-106538884D01*
X96562354Y-106612670D01*
X96562376Y-106613007D01*
X96562382Y-110903719D01*
X96562014Y-111053921D01*
X96568956Y-111116868D01*
X96595130Y-111354212D01*
X96595132Y-111354223D01*
X96661715Y-111648909D01*
X96760927Y-111934267D01*
X96891512Y-112206698D01*
X96891514Y-112206702D01*
X96891516Y-112206705D01*
X97051833Y-112462777D01*
X97051835Y-112462780D01*
X97239855Y-112699254D01*
X97239858Y-112699258D01*
X97453207Y-112913151D01*
X97453208Y-112913152D01*
X97453212Y-112913155D01*
X97453214Y-112913157D01*
X97689213Y-113101781D01*
X97944876Y-113262750D01*
X98216979Y-113394032D01*
X98437253Y-113471243D01*
X98502076Y-113493966D01*
X98502080Y-113493967D01*
X98502088Y-113493970D01*
X98735137Y-113547251D01*
X98796601Y-113561304D01*
X98796602Y-113561304D01*
X98796606Y-113561305D01*
X99096817Y-113595186D01*
X99193944Y-113595195D01*
X99205677Y-113597752D01*
X99259695Y-113595200D01*
X99313768Y-113595200D01*
X99313769Y-113595199D01*
X99321824Y-113594139D01*
X99321944Y-113595050D01*
X99339049Y-113592800D01*
X122778584Y-113592800D01*
X128201847Y-113592800D01*
X128224775Y-113596735D01*
X128267479Y-113592800D01*
X128310368Y-113592801D01*
X128310377Y-113592798D01*
X128317246Y-113591895D01*
X128333410Y-113590834D01*
X128392585Y-113590823D01*
X128643806Y-113554602D01*
X128887286Y-113482901D01*
X129118043Y-113377188D01*
X129331352Y-113239627D01*
X129522847Y-113073034D01*
X129688609Y-112880819D01*
X129825244Y-112666916D01*
X129929955Y-112435703D01*
X130000600Y-112191914D01*
X130035732Y-111940539D01*
X130034632Y-111686723D01*
X129997323Y-111435662D01*
X129924567Y-111192494D01*
X129924565Y-111192491D01*
X129924563Y-111192483D01*
X129843789Y-111018167D01*
X129817855Y-110962198D01*
X129679371Y-110749487D01*
X129679367Y-110749483D01*
X129679366Y-110749480D01*
X129511953Y-110558719D01*
X129511950Y-110558716D01*
X129495032Y-110544254D01*
X129319018Y-110393789D01*
X129319015Y-110393787D01*
X129319015Y-110393786D01*
X129104532Y-110258086D01*
X129104522Y-110258081D01*
X128872860Y-110154374D01*
X128628767Y-110084786D01*
X128377242Y-110050744D01*
X128377239Y-110050744D01*
X128324085Y-110051192D01*
X128324086Y-110051193D01*
X128311497Y-110051299D01*
X128306799Y-110050179D01*
X128245610Y-110051859D01*
X128244419Y-110051869D01*
X128177926Y-110052446D01*
X128172861Y-110052800D01*
X107274366Y-110052801D01*
X107262213Y-110052204D01*
X107134210Y-110039598D01*
X107110367Y-110034855D01*
X106993136Y-109999293D01*
X106970679Y-109989991D01*
X106862646Y-109932246D01*
X106842434Y-109918741D01*
X106747738Y-109841026D01*
X106730550Y-109823838D01*
X106652835Y-109729142D01*
X106639330Y-109708930D01*
X106581585Y-109600897D01*
X106572283Y-109578440D01*
X106536721Y-109461209D01*
X106531979Y-109437373D01*
X106519374Y-109309393D01*
X106518777Y-109297239D01*
X106518777Y-106809360D01*
X106519374Y-106797206D01*
X106519701Y-106793878D01*
X106531979Y-106669224D01*
X106536721Y-106645390D01*
X106546545Y-106613007D01*
X106572283Y-106528159D01*
X106581582Y-106505708D01*
X106639333Y-106397663D01*
X106652830Y-106377463D01*
X106730554Y-106282756D01*
X106747733Y-106265577D01*
X106842440Y-106187853D01*
X106862640Y-106174356D01*
X106970685Y-106116605D01*
X106993136Y-106107306D01*
X106999067Y-106105506D01*
X107110369Y-106071743D01*
X107134201Y-106067002D01*
X107262213Y-106054394D01*
X107274366Y-106053797D01*
X126227719Y-106053798D01*
X126227723Y-106053800D01*
X126252384Y-106053800D01*
X126483975Y-106053800D01*
X126483976Y-106053799D01*
X126652271Y-106034837D01*
X126813267Y-106016698D01*
X126813270Y-106016697D01*
X126813282Y-106016696D01*
X127136366Y-105942954D01*
X127449163Y-105833502D01*
X127747738Y-105689716D01*
X128028336Y-105513404D01*
X128287430Y-105306784D01*
X128521760Y-105072454D01*
X128728380Y-104813360D01*
X128904692Y-104532762D01*
X129048478Y-104234187D01*
X129157930Y-103921390D01*
X129231672Y-103598306D01*
X129268776Y-103268996D01*
X129268776Y-103168435D01*
X129268970Y-103167703D01*
X129268776Y-103102463D01*
X129268776Y-103037408D01*
X129268776Y-103031261D01*
X129268554Y-103027951D01*
X129266189Y-102232529D01*
X129261364Y-100609916D01*
X129261364Y-100445016D01*
X129224260Y-100115706D01*
X129150518Y-99792622D01*
X129041066Y-99479825D01*
X128897280Y-99181250D01*
X128720968Y-98900652D01*
X128514348Y-98641558D01*
X128280018Y-98407228D01*
X128020924Y-98200608D01*
X127740326Y-98024296D01*
X127740323Y-98024294D01*
X127441754Y-97880511D01*
X127128953Y-97771057D01*
X126879611Y-97714146D01*
X126805870Y-97697316D01*
X126805867Y-97697315D01*
X126805855Y-97697313D01*
X126476566Y-97660212D01*
X126476560Y-97660212D01*
X126310864Y-97660212D01*
X126310104Y-97660212D01*
X107329455Y-97652829D01*
X107329452Y-97652829D01*
X107321310Y-97652825D01*
X107321218Y-97652801D01*
X107261373Y-97652801D01*
X107261362Y-97652797D01*
X107249270Y-97652204D01*
X107121260Y-97639596D01*
X107097418Y-97634853D01*
X106980187Y-97599291D01*
X106957730Y-97589989D01*
X106849697Y-97532244D01*
X106829485Y-97518739D01*
X106734789Y-97441024D01*
X106717601Y-97423836D01*
X106639886Y-97329140D01*
X106626381Y-97308928D01*
X106568636Y-97200895D01*
X106559334Y-97178438D01*
X106523772Y-97061207D01*
X106519030Y-97037371D01*
X106506422Y-96909360D01*
X106505825Y-96897206D01*
X106505825Y-94409387D01*
X106506422Y-94397233D01*
X106512315Y-94337401D01*
X106519030Y-94269222D01*
X106523772Y-94245388D01*
X106559334Y-94128157D01*
X106568633Y-94105706D01*
X106626384Y-93997661D01*
X106639881Y-93977461D01*
X106717605Y-93882754D01*
X106734784Y-93865575D01*
X106829491Y-93787851D01*
X106849691Y-93774354D01*
X106957736Y-93716603D01*
X106980187Y-93707304D01*
X106986118Y-93705504D01*
X107097420Y-93671741D01*
X107121252Y-93667000D01*
X107249264Y-93654392D01*
X107261417Y-93653795D01*
X128077719Y-93653798D01*
X128077723Y-93653800D01*
X128102384Y-93653800D01*
X128294902Y-93653800D01*
X128294905Y-93653800D01*
X128545584Y-93617758D01*
X128788583Y-93546407D01*
X128788586Y-93546405D01*
X128788588Y-93546405D01*
X129018942Y-93441206D01*
X129018946Y-93441203D01*
X129018954Y-93441200D01*
X129232008Y-93304279D01*
X129423407Y-93138431D01*
X129589255Y-92947032D01*
X129726176Y-92733978D01*
X129726179Y-92733970D01*
X129726182Y-92733966D01*
X129831381Y-92503612D01*
X129831381Y-92503610D01*
X129831383Y-92503607D01*
X129902734Y-92260608D01*
X129938776Y-92009929D01*
X129938776Y-91756671D01*
X129902734Y-91505992D01*
X129831383Y-91262993D01*
X129831382Y-91262991D01*
X129831381Y-91262987D01*
X129726182Y-91032633D01*
X129726169Y-91032610D01*
X129589259Y-90819574D01*
X129589255Y-90819568D01*
X129423407Y-90628168D01*
X129232007Y-90462320D01*
X129232001Y-90462316D01*
X129018965Y-90325406D01*
X129018942Y-90325393D01*
X128788588Y-90220194D01*
X128545589Y-90148843D01*
X128545579Y-90148841D01*
X128421660Y-90131024D01*
X128294905Y-90112800D01*
X128294903Y-90112800D01*
X99218276Y-90112800D01*
X99067494Y-90112799D01*
X99067493Y-90112799D01*
X99067491Y-90112799D01*
X98767816Y-90146557D01*
X98767815Y-90146557D01*
X98767808Y-90146558D01*
X98473804Y-90213649D01*
X98473794Y-90213652D01*
X98189157Y-90313230D01*
X98189147Y-90313234D01*
X97917432Y-90444056D01*
X97917430Y-90444057D01*
X97662068Y-90604473D01*
X97426265Y-90792469D01*
X97426262Y-90792471D01*
X97212986Y-91005683D01*
X97212986Y-91005684D01*
X97024921Y-91241428D01*
X96864426Y-91496744D01*
X96733522Y-91768420D01*
X96633851Y-92053047D01*
X96566670Y-92347030D01*
X96566668Y-92347046D01*
X96532821Y-92646690D01*
X96532820Y-92646699D01*
X96532808Y-92688431D01*
X96532795Y-92731672D01*
X96532776Y-92731746D01*
X96532776Y-92797143D01*
X96532776Y-92797292D01*
X96532776Y-92797484D01*
X96532754Y-92871270D01*
X96532776Y-92871607D01*
X96532782Y-97162015D01*
X96532782Y-97162318D01*
X96532414Y-97312520D01*
X94988500Y-97312520D01*
X94988500Y-67312706D01*
X94988618Y-67307298D01*
X94991377Y-67244108D01*
X95005690Y-66916255D01*
X95006629Y-66905524D01*
X95057367Y-66520137D01*
X95059240Y-66509510D01*
X95143375Y-66130004D01*
X95146166Y-66119589D01*
X95263057Y-65748857D01*
X95266741Y-65738736D01*
X95415499Y-65379603D01*
X95420057Y-65369829D01*
X95599551Y-65025024D01*
X95604933Y-65015703D01*
X95813788Y-64687867D01*
X95819979Y-64679024D01*
X96056613Y-64370638D01*
X96063551Y-64362369D01*
X96326158Y-64075784D01*
X96333784Y-64068158D01*
X96620369Y-63805551D01*
X96628638Y-63798613D01*
X96937024Y-63561979D01*
X96945867Y-63555788D01*
X97273703Y-63346933D01*
X97283024Y-63341551D01*
X97627829Y-63162057D01*
X97637603Y-63157499D01*
X97996736Y-63008741D01*
X98006857Y-63005057D01*
X98377589Y-62888166D01*
X98388004Y-62885375D01*
X98767510Y-62801240D01*
X98778137Y-62799367D01*
X99163524Y-62748629D01*
X99174255Y-62747690D01*
X99552776Y-62731164D01*
X99565298Y-62730618D01*
X99570706Y-62730500D01*
X99633892Y-62730500D01*
X175067108Y-62730500D01*
X175130294Y-62730500D01*
X175135702Y-62730618D01*
G37*
%TD.AperFunction*%
%TD*%
M02*
