%TF.GenerationSoftware,KiCad,Pcbnew,10.0.1*%
%TF.CreationDate,2026-07-02T05:41:54-07:00*%
%TF.ProjectId,BusinessCard,42757369-6e65-4737-9343-6172642e6b69,rev?*%
%TF.SameCoordinates,Original*%
%TF.FileFunction,Copper,L1,Top*%
%TF.FilePolarity,Positive*%
%FSLAX46Y46*%
G04 Gerber Fmt 4.6, Leading zero omitted, Abs format (unit mm)*
G04 Created by KiCad (PCBNEW 10.0.1) date 2026-07-02 05:41:54*
%MOMM*%
%LPD*%
G01*
G04 APERTURE LIST*
G04 Aperture macros list*
%AMRoundRect*
0 Rectangle with rounded corners*
0 $1 Rounding radius*
0 $2 $3 $4 $5 $6 $7 $8 $9 X,Y pos of 4 corners*
0 Add a 4 corners polygon primitive as box body*
4,1,4,$2,$3,$4,$5,$6,$7,$8,$9,$2,$3,0*
0 Add four circle primitives for the rounded corners*
1,1,$1+$1,$2,$3*
1,1,$1+$1,$4,$5*
1,1,$1+$1,$6,$7*
1,1,$1+$1,$8,$9*
0 Add four rect primitives between the rounded corners*
20,1,$1+$1,$2,$3,$4,$5,0*
20,1,$1+$1,$4,$5,$6,$7,0*
20,1,$1+$1,$6,$7,$8,$9,0*
20,1,$1+$1,$8,$9,$2,$3,0*%
G04 Aperture macros list end*
%TA.AperFunction,EtchedComponent*%
%ADD10C,0.100000*%
%TD*%
%TA.AperFunction,EtchedComponent*%
%ADD11C,0.200000*%
%TD*%
%TA.AperFunction,EtchedComponent*%
%ADD12C,1.200000*%
%TD*%
%TA.AperFunction,SMDPad,CuDef*%
%ADD13RoundRect,0.650000X-0.650000X-1.800000X0.650000X-1.800000X0.650000X1.800000X-0.650000X1.800000X0*%
%TD*%
%TA.AperFunction,SMDPad,CuDef*%
%ADD14RoundRect,0.612500X-0.612500X-1.837500X0.612500X-1.837500X0.612500X1.837500X-0.612500X1.837500X0*%
%TD*%
%TA.AperFunction,SMDPad,CuDef*%
%ADD15RoundRect,0.225000X-0.225000X-0.250000X0.225000X-0.250000X0.225000X0.250000X-0.225000X0.250000X0*%
%TD*%
%TA.AperFunction,SMDPad,CuDef*%
%ADD16RoundRect,0.150000X0.150000X-0.590000X0.150000X0.590000X-0.150000X0.590000X-0.150000X-0.590000X0*%
%TD*%
%TA.AperFunction,SMDPad,CuDef*%
%ADD17RoundRect,0.242500X0.457500X-0.242500X0.457500X0.242500X-0.457500X0.242500X-0.457500X-0.242500X0*%
%TD*%
%TA.AperFunction,SMDPad,CuDef*%
%ADD18RoundRect,0.248780X-0.451220X0.261220X-0.451220X-0.261220X0.451220X-0.261220X0.451220X0.261220X0*%
%TD*%
%TA.AperFunction,SMDPad,CuDef*%
%ADD19RoundRect,0.250000X-0.600000X-0.250000X0.600000X-0.250000X0.600000X0.250000X-0.600000X0.250000X0*%
%TD*%
%TA.AperFunction,ViaPad*%
%ADD20C,0.600000*%
%TD*%
%TA.AperFunction,Conductor*%
%ADD21C,0.200000*%
%TD*%
G04 APERTURE END LIST*
%TO.C,BT1*%
D10*
X106118276Y-96903300D02*
X106118276Y-94403300D01*
X106118279Y-109303300D02*
X106118279Y-106803300D01*
D11*
X106168279Y-107153300D02*
X106168279Y-107553300D01*
D10*
X107218276Y-93253298D02*
X122668276Y-93253298D01*
X122668276Y-98053298D01*
X107218276Y-98053298D01*
X107218276Y-93253298D01*
%TA.AperFunction,EtchedComponent*%
G36*
X107218276Y-93253298D02*
G01*
X122668276Y-93253298D01*
X122668276Y-98053298D01*
X107218276Y-98053298D01*
X107218276Y-93253298D01*
G37*
%TD.AperFunction*%
X107268276Y-105653300D02*
X122718276Y-105653300D01*
X122718276Y-110453300D01*
X107268276Y-110453300D01*
X107268276Y-105653300D01*
%TA.AperFunction,EtchedComponent*%
G36*
X107268276Y-105653300D02*
G01*
X122718276Y-105653300D01*
X122718276Y-110453300D01*
X107268276Y-110453300D01*
X107268276Y-105653300D01*
G37*
%TD.AperFunction*%
D12*
X107868276Y-94403300D02*
G75*
G02*
X106668276Y-94403300I-600000J0D01*
G01*
X106668276Y-94403300D02*
G75*
G02*
X107868276Y-94403300I600000J0D01*
G01*
X107868276Y-96903302D02*
G75*
G02*
X106668276Y-96903302I-600000J0D01*
G01*
X106668276Y-96903302D02*
G75*
G02*
X107868276Y-96903302I600000J0D01*
G01*
X107868279Y-106803300D02*
G75*
G02*
X106668279Y-106803300I-600000J0D01*
G01*
X106668279Y-106803300D02*
G75*
G02*
X107868279Y-106803300I600000J0D01*
G01*
X107868279Y-109303302D02*
G75*
G02*
X106668279Y-109303302I-600000J0D01*
G01*
X106668279Y-109303302D02*
G75*
G02*
X107868279Y-109303302I600000J0D01*
G01*
D10*
X108468274Y-94503300D02*
X108468276Y-97003302D01*
X106168276Y-96603300D01*
X106168276Y-94953300D01*
X108268276Y-94203300D01*
X108468274Y-94503300D01*
%TA.AperFunction,EtchedComponent*%
G36*
X108468274Y-94503300D02*
G01*
X108468276Y-97003302D01*
X106168276Y-96603300D01*
X106168276Y-94953300D01*
X108268276Y-94203300D01*
X108468274Y-94503300D01*
G37*
%TD.AperFunction*%
X108468277Y-106903300D02*
X108468279Y-109403302D01*
X106168279Y-109003300D01*
X106168279Y-107353300D01*
X108268279Y-106603300D01*
X108468277Y-106903300D01*
%TA.AperFunction,EtchedComponent*%
G36*
X108468277Y-106903300D02*
G01*
X108468279Y-109403302D01*
X106168279Y-109003300D01*
X106168279Y-107353300D01*
X108268279Y-106603300D01*
X108468277Y-106903300D01*
G37*
%TD.AperFunction*%
%TD*%
D13*
%TO.P,BT1,1,+_1*%
%TO.N,Net-(BT1-+)*%
X123268276Y-108053300D03*
D14*
X123293276Y-95653300D03*
%TD*%
D15*
%TO.P,C1,1*%
%TO.N,Net-(Q1-C)*%
X117772000Y-82296000D03*
%TO.P,C1,2*%
%TO.N,Net-(Q2-B)*%
X119332000Y-82296000D03*
%TD*%
D16*
%TO.P,Q1,1,B_1*%
%TO.N,Net-(Q1-B)*%
X115392000Y-80000000D03*
%TO.P,Q1,2,E_2*%
%TO.N,Net-(Q1-E)*%
X117292000Y-80000000D03*
%TO.P,Q1,3,C_3*%
%TO.N,Net-(Q1-C)*%
X116342000Y-78120000D03*
%TD*%
%TO.P,Q2,1,B_1*%
%TO.N,Net-(Q2-B)*%
X119710000Y-80000000D03*
%TO.P,Q2,2,E_2*%
%TO.N,Net-(Q1-E)*%
X121610000Y-80000000D03*
%TO.P,Q2,3,C_3*%
%TO.N,Net-(Q2-C)*%
X120660000Y-78120000D03*
%TD*%
D17*
%TO.P,D2,1*%
%TO.N,Net-(BT1--)*%
X123708000Y-86350000D03*
%TO.P,D2,2*%
%TO.N,Net-(D2-Pad2)*%
X123708000Y-84470000D03*
%TD*%
D18*
%TO.P,R1,1*%
%TO.N,Net-(Q1-C)*%
X113294000Y-80436000D03*
%TO.P,R1,2*%
%TO.N,Net-(D1-Pad2)*%
X113294000Y-82256000D03*
%TD*%
%TO.P,R3,1*%
%TO.N,Net-(Q1-B)*%
X115580000Y-82468000D03*
%TO.P,R3,2*%
%TO.N,Net-(BT1--)*%
X115580000Y-84288000D03*
%TD*%
%TO.P,R4,1*%
%TO.N,Net-(Q2-B)*%
X121422000Y-82468000D03*
%TO.P,R4,2*%
%TO.N,Net-(BT1--)*%
X121422000Y-84288000D03*
%TD*%
D17*
%TO.P,D1,1*%
%TO.N,Net-(BT1--)*%
X113294000Y-86350000D03*
%TO.P,D1,2*%
%TO.N,Net-(D1-Pad2)*%
X113294000Y-84470000D03*
%TD*%
D19*
%TO.P,S1,1,A_1*%
%TO.N,Net-(Q1-E)*%
X102740000Y-80732000D03*
%TO.P,S1,2,B_2*%
X109340000Y-80732000D03*
%TO.P,S1,3,C_3*%
%TO.N,Net-(BT1-+)*%
X102740000Y-84432000D03*
%TO.P,S1,4,D_4*%
X109340000Y-84432000D03*
%TD*%
D18*
%TO.P,R2,1*%
%TO.N,Net-(Q2-C)*%
X123708000Y-80436000D03*
%TO.P,R2,2*%
%TO.N,Net-(D2-Pad2)*%
X123708000Y-82256000D03*
%TD*%
D15*
%TO.P,C2,1*%
%TO.N,Net-(Q1-B)*%
X117772000Y-85918000D03*
%TO.P,C2,2*%
%TO.N,Net-(Q2-C)*%
X119332000Y-85918000D03*
%TD*%
D20*
%TO.N,Net-(BT1--)*%
X113152000Y-87590000D03*
%TD*%
%TO.N,Net-(BT1--)*%
D21*
X121646000Y-84288000D02*
X121422000Y-84288000D01*
X113294000Y-87448000D02*
X113152000Y-87590000D01*
X119986744Y-86943000D02*
X121422000Y-85507744D01*
X123708000Y-86350000D02*
X121646000Y-84288000D01*
X113294000Y-86350000D02*
X113294000Y-87448000D01*
X115580000Y-85405744D02*
X117117256Y-86943000D01*
X117117256Y-86943000D02*
X119986744Y-86943000D01*
X113294000Y-86350000D02*
X115356000Y-84288000D01*
X121422000Y-85507744D02*
X121422000Y-84288000D01*
X115356000Y-84288000D02*
X115580000Y-84288000D01*
X115580000Y-84288000D02*
X115580000Y-85405744D01*
%TO.N,Net-(Q1-C)*%
X116342000Y-81036000D02*
X117602000Y-82296000D01*
X115610000Y-78120000D02*
X113294000Y-80436000D01*
X116342000Y-78120000D02*
X115610000Y-78120000D01*
X116342000Y-78120000D02*
X116342000Y-81036000D01*
%TO.N,Net-(Q2-B)*%
X119710000Y-82088000D02*
X119502000Y-82296000D01*
X121422000Y-82468000D02*
X119674000Y-82468000D01*
X119710000Y-80000000D02*
X119710000Y-82088000D01*
X121250000Y-82296000D02*
X121422000Y-82468000D01*
X119674000Y-82468000D02*
X119502000Y-82296000D01*
%TO.N,Net-(Q1-B)*%
X115392000Y-82280000D02*
X115580000Y-82468000D01*
X115580000Y-82468000D02*
X117602000Y-84490000D01*
X117602000Y-84490000D02*
X117602000Y-85918000D01*
X115392000Y-80000000D02*
X115392000Y-82280000D01*
%TO.N,Net-(Q1-E)*%
X109340000Y-80732000D02*
X109340000Y-79464000D01*
X109340000Y-79464000D02*
X111882000Y-76922000D01*
X109340000Y-80732000D02*
X102740000Y-80732000D01*
X116708000Y-76922000D02*
X117292000Y-77506000D01*
X121090552Y-80000000D02*
X120050552Y-78960000D01*
X121610000Y-80000000D02*
X121090552Y-80000000D01*
X111882000Y-76922000D02*
X116708000Y-76922000D01*
X117292000Y-77506000D02*
X117292000Y-80000000D01*
X118332000Y-78960000D02*
X117292000Y-80000000D01*
X120050552Y-78960000D02*
X118332000Y-78960000D01*
%TO.N,Net-(Q2-C)*%
X122708000Y-82677426D02*
X122708000Y-81436000D01*
X121392000Y-78120000D02*
X123708000Y-80436000D01*
X120936574Y-83278000D02*
X122107426Y-83278000D01*
X120660000Y-78120000D02*
X121392000Y-78120000D01*
X122107426Y-83278000D02*
X122708000Y-82677426D01*
X119502000Y-84712574D02*
X120936574Y-83278000D01*
X119502000Y-85918000D02*
X119502000Y-84712574D01*
X122708000Y-81436000D02*
X123708000Y-80436000D01*
%TO.N,Net-(D2-Pad2)*%
X123708000Y-82256000D02*
X123708000Y-84470000D01*
%TO.N,Net-(D1-Pad2)*%
X113294000Y-82256000D02*
X113294000Y-84470000D01*
%TD*%
%TA.AperFunction,Conductor*%
%TO.N,Net-(BT1-+)*%
G36*
X110029677Y-82601685D02*
G01*
X110050319Y-82618319D01*
X112057181Y-84625181D01*
X112090666Y-84686504D01*
X112093500Y-84712862D01*
X112093500Y-84762017D01*
X112103896Y-84863771D01*
X112158528Y-85028640D01*
X112158533Y-85028651D01*
X112249709Y-85176468D01*
X112249712Y-85176472D01*
X112372528Y-85299288D01*
X112380917Y-85304463D01*
X112427640Y-85356411D01*
X112438861Y-85425374D01*
X112411017Y-85489456D01*
X112380918Y-85515536D01*
X112375381Y-85518951D01*
X112372526Y-85520713D01*
X112249712Y-85643527D01*
X112249709Y-85643531D01*
X112158533Y-85791348D01*
X112158528Y-85791359D01*
X112103896Y-85956228D01*
X112093500Y-86057982D01*
X112093500Y-86642017D01*
X112103896Y-86743771D01*
X112158528Y-86908640D01*
X112158533Y-86908651D01*
X112249709Y-87056468D01*
X112249712Y-87056472D01*
X112372729Y-87179489D01*
X112406214Y-87240812D01*
X112401230Y-87310504D01*
X112399611Y-87314619D01*
X112382262Y-87356506D01*
X112382260Y-87356511D01*
X112351500Y-87511153D01*
X112351500Y-87668846D01*
X112382261Y-87823489D01*
X112382264Y-87823501D01*
X112442602Y-87969172D01*
X112442609Y-87969185D01*
X112530210Y-88100288D01*
X112530213Y-88100292D01*
X112641707Y-88211786D01*
X112641711Y-88211789D01*
X112772814Y-88299390D01*
X112772827Y-88299397D01*
X112918498Y-88359735D01*
X112918503Y-88359737D01*
X113073153Y-88390499D01*
X113073156Y-88390500D01*
X113073158Y-88390500D01*
X113230844Y-88390500D01*
X113230845Y-88390499D01*
X113385497Y-88359737D01*
X113531179Y-88299394D01*
X113662289Y-88211789D01*
X113773789Y-88100289D01*
X113861394Y-87969179D01*
X113921737Y-87823497D01*
X113952500Y-87668842D01*
X113952500Y-87511158D01*
X113952500Y-87511155D01*
X113936076Y-87428589D01*
X113942303Y-87358997D01*
X113985166Y-87303820D01*
X114018683Y-87286694D01*
X114067643Y-87270471D01*
X114215472Y-87179288D01*
X114338288Y-87056472D01*
X114429471Y-86908643D01*
X114484104Y-86743770D01*
X114494500Y-86642010D01*
X114494500Y-86230000D01*
X114514185Y-86162961D01*
X114566989Y-86117206D01*
X114618500Y-86106000D01*
X115379659Y-86106000D01*
X115446698Y-86125685D01*
X115467340Y-86142319D01*
X116632395Y-87307374D01*
X116632405Y-87307385D01*
X116636735Y-87311715D01*
X116636736Y-87311716D01*
X116748540Y-87423520D01*
X116835351Y-87473639D01*
X116835353Y-87473641D01*
X116885469Y-87502576D01*
X116885471Y-87502577D01*
X117038198Y-87543500D01*
X117038199Y-87543500D01*
X119900075Y-87543500D01*
X119900091Y-87543501D01*
X119907687Y-87543501D01*
X120065798Y-87543501D01*
X120065801Y-87543501D01*
X120218529Y-87502577D01*
X120268648Y-87473639D01*
X120355460Y-87423520D01*
X120467264Y-87311716D01*
X120467264Y-87311714D01*
X120477472Y-87301507D01*
X120477473Y-87301504D01*
X121636661Y-86142319D01*
X121697984Y-86108834D01*
X121724342Y-86106000D01*
X122383500Y-86106000D01*
X122450539Y-86125685D01*
X122496294Y-86178489D01*
X122507500Y-86230000D01*
X122507500Y-86642017D01*
X122517896Y-86743771D01*
X122572528Y-86908640D01*
X122572533Y-86908651D01*
X122663709Y-87056468D01*
X122663712Y-87056472D01*
X122786527Y-87179287D01*
X122786531Y-87179290D01*
X122934348Y-87270466D01*
X122934351Y-87270467D01*
X122934357Y-87270471D01*
X123099230Y-87325104D01*
X123200990Y-87335500D01*
X123200995Y-87335500D01*
X124215005Y-87335500D01*
X124215010Y-87335500D01*
X124316770Y-87325104D01*
X124481643Y-87270471D01*
X124629472Y-87179288D01*
X124752288Y-87056472D01*
X124843471Y-86908643D01*
X124898104Y-86743770D01*
X124908500Y-86642010D01*
X124908500Y-86230000D01*
X124928185Y-86162961D01*
X124980989Y-86117206D01*
X125032500Y-86106000D01*
X127202638Y-86106000D01*
X127269677Y-86125685D01*
X127290319Y-86142319D01*
X133059681Y-91911681D01*
X133093166Y-91973004D01*
X133096000Y-91999362D01*
X133096000Y-111636000D01*
X133076315Y-111703039D01*
X133023511Y-111748794D01*
X132972000Y-111760000D01*
X130152456Y-111760000D01*
X130085417Y-111740315D01*
X130039662Y-111687511D01*
X130029803Y-111654227D01*
X129997323Y-111435664D01*
X129997323Y-111435662D01*
X129924567Y-111192494D01*
X129924565Y-111192491D01*
X129924563Y-111192483D01*
X129843789Y-111018167D01*
X129817855Y-110962198D01*
X129679371Y-110749487D01*
X129679367Y-110749483D01*
X129679366Y-110749480D01*
X129511953Y-110558719D01*
X129511950Y-110558716D01*
X129495032Y-110544254D01*
X129319018Y-110393789D01*
X129319015Y-110393787D01*
X129319015Y-110393786D01*
X129104532Y-110258086D01*
X129104522Y-110258081D01*
X128872860Y-110154374D01*
X128628767Y-110084786D01*
X128377242Y-110050744D01*
X128377239Y-110050744D01*
X128324085Y-110051192D01*
X128324086Y-110051193D01*
X128311497Y-110051299D01*
X128306799Y-110050179D01*
X128245610Y-110051859D01*
X128244419Y-110051869D01*
X128177925Y-110052446D01*
X128172862Y-110052800D01*
X124965585Y-110052800D01*
X124898546Y-110033115D01*
X124877904Y-110016481D01*
X123305095Y-108443672D01*
X123271610Y-108382349D01*
X123268776Y-108355991D01*
X123268776Y-108053299D01*
X123621829Y-108053299D01*
X123621829Y-108053301D01*
X125068274Y-109499746D01*
X125068275Y-109499745D01*
X125068275Y-106606853D01*
X125068274Y-106606852D01*
X123621829Y-108053299D01*
X123268776Y-108053299D01*
X123268776Y-107750609D01*
X123288461Y-107683570D01*
X123305095Y-107662928D01*
X124877905Y-106090118D01*
X124939228Y-106056633D01*
X124965586Y-106053799D01*
X126227717Y-106053799D01*
X126227721Y-106053800D01*
X126252384Y-106053800D01*
X126483975Y-106053800D01*
X126483976Y-106053799D01*
X126652271Y-106034837D01*
X126813267Y-106016698D01*
X126813270Y-106016697D01*
X126813282Y-106016696D01*
X127136366Y-105942954D01*
X127449163Y-105833502D01*
X127747738Y-105689716D01*
X128028336Y-105513404D01*
X128287430Y-105306784D01*
X128521760Y-105072454D01*
X128728380Y-104813360D01*
X128904692Y-104532762D01*
X129048478Y-104234187D01*
X129157930Y-103921390D01*
X129231672Y-103598306D01*
X129237926Y-103542805D01*
X129268775Y-103269002D01*
X129268776Y-103268998D01*
X129268776Y-103168435D01*
X129268970Y-103167703D01*
X129268776Y-103102463D01*
X129268776Y-103037408D01*
X129268776Y-103037407D01*
X129268776Y-103031261D01*
X129268554Y-103027951D01*
X129261365Y-100610285D01*
X129261364Y-100609916D01*
X129261364Y-100445013D01*
X129261363Y-100445009D01*
X129224262Y-100115720D01*
X129224261Y-100115715D01*
X129224260Y-100115706D01*
X129150518Y-99792622D01*
X129041066Y-99479825D01*
X128897280Y-99181250D01*
X128720968Y-98900652D01*
X128514348Y-98641558D01*
X128280018Y-98407228D01*
X128020924Y-98200608D01*
X127740326Y-98024296D01*
X127740323Y-98024294D01*
X127441754Y-97880511D01*
X127128953Y-97771057D01*
X126879611Y-97714146D01*
X126805870Y-97697316D01*
X126805867Y-97697315D01*
X126805855Y-97697313D01*
X126476566Y-97660212D01*
X126476560Y-97660212D01*
X126310864Y-97660212D01*
X126310104Y-97660212D01*
X124997437Y-97659700D01*
X124930405Y-97639989D01*
X124909804Y-97623381D01*
X123329595Y-96043172D01*
X123296110Y-95981849D01*
X123293276Y-95955491D01*
X123293276Y-95653299D01*
X123646829Y-95653299D01*
X123646829Y-95653300D01*
X125018274Y-97024746D01*
X125018275Y-97024745D01*
X125018275Y-94281853D01*
X125018274Y-94281852D01*
X123646829Y-95653299D01*
X123293276Y-95653299D01*
X123293276Y-95351108D01*
X123312961Y-95284069D01*
X123329595Y-95263427D01*
X124902905Y-93690117D01*
X124964228Y-93656632D01*
X124990582Y-93653798D01*
X128077719Y-93653798D01*
X128077723Y-93653800D01*
X128102384Y-93653800D01*
X128294902Y-93653800D01*
X128294905Y-93653800D01*
X128545584Y-93617758D01*
X128788583Y-93546407D01*
X128788586Y-93546405D01*
X128788588Y-93546405D01*
X129018942Y-93441206D01*
X129018946Y-93441203D01*
X129018954Y-93441200D01*
X129232008Y-93304279D01*
X129423407Y-93138431D01*
X129589255Y-92947032D01*
X129726176Y-92733978D01*
X129726179Y-92733970D01*
X129726182Y-92733966D01*
X129831381Y-92503612D01*
X129831381Y-92503610D01*
X129831383Y-92503607D01*
X129902734Y-92260608D01*
X129938776Y-92009929D01*
X129938776Y-91756671D01*
X129902734Y-91505992D01*
X129831383Y-91262993D01*
X129831382Y-91262991D01*
X129831381Y-91262987D01*
X129726182Y-91032633D01*
X129726169Y-91032610D01*
X129589259Y-90819574D01*
X129589255Y-90819568D01*
X129423407Y-90628168D01*
X129232007Y-90462320D01*
X129232001Y-90462316D01*
X129018965Y-90325406D01*
X129018942Y-90325393D01*
X128788588Y-90220194D01*
X128545589Y-90148843D01*
X128545579Y-90148841D01*
X128421660Y-90131024D01*
X128294905Y-90112800D01*
X128234168Y-90112800D01*
X122834168Y-90112800D01*
X100962000Y-90112800D01*
X100894961Y-90093115D01*
X100849206Y-90040311D01*
X100838000Y-89988800D01*
X100838000Y-84731986D01*
X101390001Y-84731986D01*
X101400494Y-84834697D01*
X101455641Y-85001119D01*
X101455643Y-85001124D01*
X101547684Y-85150345D01*
X101671654Y-85274315D01*
X101820875Y-85366356D01*
X101820880Y-85366358D01*
X101987302Y-85421505D01*
X101987309Y-85421506D01*
X102090019Y-85431999D01*
X102489999Y-85431999D01*
X102990000Y-85431999D01*
X103389972Y-85431999D01*
X103389986Y-85431998D01*
X103492697Y-85421505D01*
X103659119Y-85366358D01*
X103659124Y-85366356D01*
X103808345Y-85274315D01*
X103932315Y-85150345D01*
X104024356Y-85001124D01*
X104024358Y-85001119D01*
X104079505Y-84834697D01*
X104079506Y-84834690D01*
X104089999Y-84731986D01*
X107990001Y-84731986D01*
X108000494Y-84834697D01*
X108055641Y-85001119D01*
X108055643Y-85001124D01*
X108147684Y-85150345D01*
X108271654Y-85274315D01*
X108420875Y-85366356D01*
X108420880Y-85366358D01*
X108587302Y-85421505D01*
X108587309Y-85421506D01*
X108690019Y-85431999D01*
X109089999Y-85431999D01*
X109590000Y-85431999D01*
X109989972Y-85431999D01*
X109989986Y-85431998D01*
X110092697Y-85421505D01*
X110259119Y-85366358D01*
X110259124Y-85366356D01*
X110408345Y-85274315D01*
X110532315Y-85150345D01*
X110624356Y-85001124D01*
X110624358Y-85001119D01*
X110679505Y-84834697D01*
X110679506Y-84834690D01*
X110689999Y-84731986D01*
X110690000Y-84731973D01*
X110690000Y-84682000D01*
X109590000Y-84682000D01*
X109590000Y-85431999D01*
X109089999Y-85431999D01*
X109090000Y-85431998D01*
X109090000Y-84682000D01*
X107990001Y-84682000D01*
X107990001Y-84731986D01*
X104089999Y-84731986D01*
X104090000Y-84731973D01*
X104090000Y-84682000D01*
X102990000Y-84682000D01*
X102990000Y-85431999D01*
X102489999Y-85431999D01*
X102490000Y-85431998D01*
X102490000Y-84682000D01*
X101390001Y-84682000D01*
X101390001Y-84731986D01*
X100838000Y-84731986D01*
X100838000Y-84132013D01*
X101390000Y-84132013D01*
X101390000Y-84182000D01*
X102490000Y-84182000D01*
X102990000Y-84182000D01*
X104089999Y-84182000D01*
X104089999Y-84132029D01*
X104089998Y-84132013D01*
X107990000Y-84132013D01*
X107990000Y-84182000D01*
X109090000Y-84182000D01*
X109590000Y-84182000D01*
X110689999Y-84182000D01*
X110689999Y-84132028D01*
X110689998Y-84132013D01*
X110679505Y-84029302D01*
X110624358Y-83862880D01*
X110624356Y-83862875D01*
X110532315Y-83713654D01*
X110408345Y-83589684D01*
X110259124Y-83497643D01*
X110259119Y-83497641D01*
X110092697Y-83442494D01*
X110092690Y-83442493D01*
X109989986Y-83432000D01*
X109590000Y-83432000D01*
X109590000Y-84182000D01*
X109090000Y-84182000D01*
X109090000Y-83432000D01*
X108690028Y-83432000D01*
X108690012Y-83432001D01*
X108587302Y-83442494D01*
X108420880Y-83497641D01*
X108420875Y-83497643D01*
X108271654Y-83589684D01*
X108147684Y-83713654D01*
X108055643Y-83862875D01*
X108055641Y-83862880D01*
X108000494Y-84029302D01*
X108000493Y-84029309D01*
X107990000Y-84132013D01*
X104089998Y-84132013D01*
X104089998Y-84132012D01*
X104079505Y-84029302D01*
X104024358Y-83862880D01*
X104024356Y-83862875D01*
X103932315Y-83713654D01*
X103808345Y-83589684D01*
X103659124Y-83497643D01*
X103659119Y-83497641D01*
X103492697Y-83442494D01*
X103492690Y-83442493D01*
X103389986Y-83432000D01*
X102990000Y-83432000D01*
X102990000Y-84182000D01*
X102490000Y-84182000D01*
X102490000Y-83432000D01*
X102090028Y-83432000D01*
X102090012Y-83432001D01*
X101987302Y-83442494D01*
X101820880Y-83497641D01*
X101820875Y-83497643D01*
X101671654Y-83589684D01*
X101547684Y-83713654D01*
X101455643Y-83862875D01*
X101455641Y-83862880D01*
X101400494Y-84029302D01*
X101400493Y-84029309D01*
X101390000Y-84132013D01*
X100838000Y-84132013D01*
X100838000Y-82706000D01*
X100857685Y-82638961D01*
X100910489Y-82593206D01*
X100962000Y-82582000D01*
X109962638Y-82582000D01*
X110029677Y-82601685D01*
G37*
%TD.AperFunction*%
%TD*%
M02*
