%TF.GenerationSoftware,KiCad,Pcbnew,10.0.1*%
%TF.CreationDate,2026-07-02T05:41:54-07:00*%
%TF.ProjectId,BusinessCard,42757369-6e65-4737-9343-6172642e6b69,rev?*%
%TF.SameCoordinates,Original*%
%TF.FileFunction,Profile,NP*%
%FSLAX46Y46*%
G04 Gerber Fmt 4.6, Leading zero omitted, Abs format (unit mm)*
G04 Created by KiCad (PCBNEW 10.0.1) date 2026-07-02 05:41:54*
%MOMM*%
%LPD*%
G01*
G04 APERTURE LIST*
%TA.AperFunction,Profile*%
%ADD10C,0.050000*%
%TD*%
G04 APERTURE END LIST*
D10*
X94488000Y-67310000D02*
G75*
G02*
X99568000Y-62230000I5080000J0D01*
G01*
X94488000Y-111125000D02*
X94488000Y-67310000D01*
X99568000Y-62230000D02*
X175133000Y-62230000D01*
X99568000Y-116205000D02*
G75*
G02*
X94488000Y-111125000I0J5080000D01*
G01*
X175133000Y-62230000D02*
G75*
G02*
X180213000Y-67310000I0J-5080000D01*
G01*
X175133000Y-116205000D02*
X99568000Y-116205000D01*
X180213000Y-67310000D02*
X180213000Y-111125000D01*
X180213000Y-111125000D02*
G75*
G02*
X175133000Y-116205000I-5080000J0D01*
G01*
%TO.C,BT1*%
X97033283Y-97162737D02*
X97033276Y-92797637D01*
X97062883Y-110904137D02*
X97062876Y-106539037D01*
X99218276Y-90613300D02*
X122768276Y-90613300D01*
X99218276Y-99353300D02*
X110853113Y-99376300D01*
X99268276Y-104353300D02*
X99247876Y-104354700D01*
X99298676Y-113092300D02*
X99247876Y-113094700D01*
X106005325Y-96903295D02*
X106005325Y-94403295D01*
X106018277Y-109303300D02*
X106018277Y-106803300D01*
X107255325Y-93153295D02*
X128168276Y-93153300D01*
X107268274Y-105553297D02*
X126318276Y-105553300D01*
X110812531Y-104370887D02*
X99268276Y-104353300D01*
X112100276Y-100603300D02*
X112100276Y-103103300D01*
X122768276Y-90613300D02*
X128168276Y-90613300D01*
X122844476Y-113092300D02*
X128244476Y-113092301D01*
X122848676Y-113092300D02*
X99298676Y-113092300D01*
X126310864Y-98160712D02*
X107255325Y-98153301D01*
X128218276Y-110553300D02*
X107268274Y-110553303D01*
X128254676Y-110552300D02*
X128218276Y-110553300D01*
X128265676Y-113090348D02*
X128244476Y-113092301D01*
X128760864Y-100610712D02*
X128768276Y-103103300D01*
X97033276Y-92797637D02*
G75*
G02*
X99218276Y-90613300I2184999J-662D01*
G01*
X97062876Y-106539037D02*
G75*
G02*
X99247876Y-104354700I2184999J-662D01*
G01*
X99218276Y-99353300D02*
G75*
G02*
X97033283Y-97162737I0J2185000D01*
G01*
X99247876Y-113094700D02*
G75*
G02*
X97062883Y-110904137I0J2185000D01*
G01*
X106005325Y-94403295D02*
G75*
G02*
X107255325Y-93153295I1250002J-2D01*
G01*
X106018274Y-106803297D02*
G75*
G02*
X107268274Y-105553297I1250002J-2D01*
G01*
X107255325Y-98153301D02*
G75*
G02*
X106005325Y-96903301I2J1250002D01*
G01*
X107268274Y-110553303D02*
G75*
G02*
X106018274Y-109303303I2J1250002D01*
G01*
X110853113Y-99376300D02*
G75*
G02*
X112100276Y-100603300I20002J-1226998D01*
G01*
X112100276Y-103103300D02*
G75*
G02*
X110812531Y-104370887I-1267747J2D01*
G01*
X126310864Y-98160712D02*
G75*
G02*
X128760864Y-100610712I2J-2449998D01*
G01*
X128168276Y-90613300D02*
G75*
G02*
X128168276Y-93153300I0J-1270000D01*
G01*
X128254676Y-110552300D02*
G75*
G02*
X128265676Y-113090348I11000J-1269000D01*
G01*
X128768276Y-103103300D02*
G75*
G02*
X126318276Y-105553300I-2450000J0D01*
G01*
%TD*%
M02*
