%TF.GenerationSoftware,KiCad,Pcbnew,10.0.1*%
%TF.CreationDate,2026-07-02T05:41:54-07:00*%
%TF.ProjectId,BusinessCard,42757369-6e65-4737-9343-6172642e6b69,rev?*%
%TF.SameCoordinates,Original*%
%TF.FileFunction,Soldermask,Top*%
%TF.FilePolarity,Negative*%
%FSLAX46Y46*%
G04 Gerber Fmt 4.6, Leading zero omitted, Abs format (unit mm)*
G04 Created by KiCad (PCBNEW 10.0.1) date 2026-07-02 05:41:54*
%MOMM*%
%LPD*%
G01*
G04 APERTURE LIST*
G04 Aperture macros list*
%AMRoundRect*
0 Rectangle with rounded corners*
0 $1 Rounding radius*
0 $2 $3 $4 $5 $6 $7 $8 $9 X,Y pos of 4 corners*
0 Add a 4 corners polygon primitive as box body*
4,1,4,$2,$3,$4,$5,$6,$7,$8,$9,$2,$3,0*
0 Add four circle primitives for the rounded corners*
1,1,$1+$1,$2,$3*
1,1,$1+$1,$4,$5*
1,1,$1+$1,$6,$7*
1,1,$1+$1,$8,$9*
0 Add four rect primitives between the rounded corners*
20,1,$1+$1,$2,$3,$4,$5,0*
20,1,$1+$1,$4,$5,$6,$7,0*
20,1,$1+$1,$6,$7,$8,$9,0*
20,1,$1+$1,$8,$9,$2,$3,0*%
G04 Aperture macros list end*
%ADD10C,0.100000*%
%ADD11C,1.200000*%
%ADD12RoundRect,0.650000X-0.650000X-1.800000X0.650000X-1.800000X0.650000X1.800000X-0.650000X1.800000X0*%
%ADD13RoundRect,0.612500X-0.612500X-1.837500X0.612500X-1.837500X0.612500X1.837500X-0.612500X1.837500X0*%
%ADD14RoundRect,0.244000X-0.244000X-0.269000X0.244000X-0.269000X0.244000X0.269000X-0.244000X0.269000X0*%
%ADD15RoundRect,0.150000X0.150000X-0.590000X0.150000X0.590000X-0.150000X0.590000X-0.150000X-0.590000X0*%
%ADD16RoundRect,0.261500X0.476500X-0.261500X0.476500X0.261500X-0.476500X0.261500X-0.476500X-0.261500X0*%
%ADD17RoundRect,0.267317X-0.470683X0.280683X-0.470683X-0.280683X0.470683X-0.280683X0.470683X0.280683X0*%
%ADD18RoundRect,0.250000X-0.600000X-0.250000X0.600000X-0.250000X0.600000X0.250000X-0.600000X0.250000X0*%
G04 APERTURE END LIST*
%TO.C,BT1*%
D10*
X106118276Y-96903300D02*
X106118276Y-94403300D01*
X106118279Y-109303300D02*
X106118279Y-106803300D01*
X106168279Y-107103300D02*
X106176650Y-107346739D01*
X107218278Y-93253300D02*
X122668278Y-93253300D01*
X122668278Y-98053300D01*
X107218278Y-98053300D01*
X107218278Y-93253300D01*
G36*
X107218278Y-93253300D02*
G01*
X122668278Y-93253300D01*
X122668278Y-98053300D01*
X107218278Y-98053300D01*
X107218278Y-93253300D01*
G37*
X107268278Y-105653300D02*
X122718278Y-105653300D01*
X122718278Y-110453300D01*
X107268278Y-110453300D01*
X107268278Y-105653300D01*
G36*
X107268278Y-105653300D02*
G01*
X122718278Y-105653300D01*
X122718278Y-110453300D01*
X107268278Y-110453300D01*
X107268278Y-105653300D01*
G37*
D11*
X107868276Y-94403300D02*
G75*
G02*
X106668276Y-94403300I-600000J0D01*
G01*
X106668276Y-94403300D02*
G75*
G02*
X107868276Y-94403300I600000J0D01*
G01*
X107868276Y-96903302D02*
G75*
G02*
X106668276Y-96903302I-600000J0D01*
G01*
X106668276Y-96903302D02*
G75*
G02*
X107868276Y-96903302I600000J0D01*
G01*
X107876650Y-106796739D02*
G75*
G02*
X106676650Y-106796739I-600000J0D01*
G01*
X106676650Y-106796739D02*
G75*
G02*
X107876650Y-106796739I600000J0D01*
G01*
X107876650Y-109296741D02*
G75*
G02*
X106676650Y-109296741I-600000J0D01*
G01*
X106676650Y-109296741D02*
G75*
G02*
X107876650Y-109296741I600000J0D01*
G01*
D10*
X108468274Y-94503300D02*
X108468276Y-97003302D01*
X106168276Y-96603300D01*
X106168276Y-94953300D01*
X108268276Y-94203300D01*
X108468274Y-94503300D01*
G36*
X108468274Y-94503300D02*
G01*
X108468276Y-97003302D01*
X106168276Y-96603300D01*
X106168276Y-94953300D01*
X108268276Y-94203300D01*
X108468274Y-94503300D01*
G37*
X108476648Y-106896739D02*
X108476650Y-109396741D01*
X106176650Y-108996739D01*
X106176650Y-107346739D01*
X108276650Y-106596739D01*
X108476648Y-106896739D01*
G36*
X108476648Y-106896739D02*
G01*
X108476650Y-109396741D01*
X106176650Y-108996739D01*
X106176650Y-107346739D01*
X108276650Y-106596739D01*
X108476648Y-106896739D01*
G37*
%TD*%
D12*
%TO.C,BT1*%
X123268276Y-108053300D03*
D13*
X123293276Y-95653300D03*
%TD*%
D14*
%TO.C,C1*%
X117772000Y-82296000D03*
X119332000Y-82296000D03*
%TD*%
D15*
%TO.C,Q1*%
X115392000Y-80000000D03*
X117292000Y-80000000D03*
X116342000Y-78120000D03*
%TD*%
%TO.C,Q2*%
X119710000Y-80000000D03*
X121610000Y-80000000D03*
X120660000Y-78120000D03*
%TD*%
D16*
%TO.C,D2*%
X123708000Y-86350000D03*
X123708000Y-84470000D03*
%TD*%
D17*
%TO.C,R1*%
X113294000Y-80436000D03*
X113294000Y-82256000D03*
%TD*%
%TO.C,R3*%
X115580000Y-82468000D03*
X115580000Y-84288000D03*
%TD*%
%TO.C,R4*%
X121422000Y-82468000D03*
X121422000Y-84288000D03*
%TD*%
D16*
%TO.C,D1*%
X113294000Y-86350000D03*
X113294000Y-84470000D03*
%TD*%
D18*
%TO.C,S1*%
X102740000Y-80732000D03*
X109340000Y-80732000D03*
X102740000Y-84432000D03*
X109340000Y-84432000D03*
%TD*%
D17*
%TO.C,R2*%
X123708000Y-80436000D03*
X123708000Y-82256000D03*
%TD*%
D14*
%TO.C,C2*%
X117772000Y-85918000D03*
X119332000Y-85918000D03*
%TD*%
M02*
